<?xml version="1.0"?>
<svg xmlns="http://www.w3.org/2000/svg" xmlns:xlink="http://www.w3.org/1999/xlink" xmlns:svgjs="http://svgjs.com/svgjs" version="1.1" width="512" height="512" x="0" y="0" viewBox="0 0 512 512" style="enable-background:new 0 0 512 512" xml:space="preserve" class=""><g><g xmlns="http://www.w3.org/2000/svg"><path d="m187.01 30c-4.142 0-7.5 3.358-7.5 7.5s3.358 7.5 7.5 7.5 7.5-3.358 7.5-7.5-3.358-7.5-7.5-7.5zm-60 0c-4.142 0-7.5 3.358-7.5 7.5s3.358 7.5 7.5 7.5 7.5-3.358 7.5-7.5-3.358-7.5-7.5-7.5zm347.49 13.04h-13.899c11.864-19.639 14.13-32.176 7.182-39.124-7.698-7.698-22.266-4.082-45.762 11.38-1.929-8.736-9.723-15.296-19.031-15.296h-293.98c-10.752 0-19.5 8.748-19.5 19.5v23.54h-52.01c-20.678 0-37.5 16.822-37.5 37.5v282.42c0 20.678 16.822 37.5 37.5 37.5h175.383l-5.712 42.455h-8.357c-6.939 0-13.081 4.67-14.936 11.357l-10.563 38.085c-1.306 4.707-.358 9.637 2.598 13.524 2.957 3.889 7.454 6.118 12.338 6.118h135.497c4.885 0 9.383-2.23 12.339-6.118 2.956-3.889 3.903-8.818 2.598-13.523l-10.563-38.085c-1.854-6.688-7.995-11.358-14.937-11.358h-8.357l-5.712-42.455h175.384c20.678 0 37.5-16.822 37.5-37.5v-282.42c0-20.678-16.822-37.5-37.5-37.5zm-49.747-11.476c18.502-12.923 28.316-16.207 31.938-16.556-.348 3.622-3.632 13.436-16.555 31.937-12.937 18.521-31.751 40.408-52.979 61.631-7.526 7.527-15.103 14.71-22.565 21.433-1.832-5.411-5.089-11.403-10.851-16.494-3.776-3.336-7.749-5.538-11.515-6.997 6.588-7.297 13.594-14.68 20.888-21.974 21.228-21.23 43.118-40.044 61.639-52.98zm2.079 56.476h40.168v252.42h-44.51v-247.473c1.47-1.655 2.919-3.305 4.342-4.947zm-154.032 93.945c-.044-4.832-.076-8.322 2.213-12.408 5.293-9.447 18.988-15.055 29.91-12.059 2.303.632 6.242 3.867 6.757 18.429.553 15.657-7.104 34.395-25.955 41.662-11.442 4.411-22.355 2.164-29.98-.843 5.534-3.87 9.817-8.565 12.776-14.017 4.394-8.091 4.33-15.117 4.279-20.764zm38.857-37.94c5.582-7.827 12.201-16.263 19.585-24.983 3.43.501 8.272 1.9 12.567 5.695 6.021 5.319 7.594 12.318 7.973 16.427-9.442 7.96-18.524 14.995-26.867 20.782-2.279-9.103-6.713-15.103-13.258-17.921zm-207.147-69.045h176.291c4.143 0 7.5-3.357 7.5-7.5s-3.357-7.5-7.5-7.5h-176.291v-40.5c0-2.481 2.019-4.5 4.5-4.5h293.98c5.326-.065 4.65 6.876 4.5 10.561-12.772 9.579-26.604 21.313-40.593 34.439h-51.096c-4.143 0-7.5 3.357-7.5 7.5s3.357 7.5 7.5 7.5h35.652c-4.961 4.985-9.8 10.011-14.464 15.029-.458.059-160.381-.029-161.029-.029-12.611 0-22.87 10.26-22.87 22.87v108.68c0 4.143 3.358 7.5 7.5 7.5s7.5-3.357 7.5-7.5v-108.68c0-4.34 3.53-7.87 7.87-7.87h147.595c-10.266 11.836-21.946 26.982-28.689 36.952-13.426 1.307-26.591 8.961-32.939 20.293-4.238 7.566-4.177 14.392-4.127 19.877.045 4.911.08 8.79-2.461 13.472-2.5 4.604-6.708 8.467-12.508 11.481-3.747 1.947-6.099 5.775-6.138 9.99-.039 4.219 2.245 8.094 5.961 10.113 6.334 3.441 17.016 7.923 29.675 7.923 5.913 0 12.257-.978 18.79-3.496 23.664-9.12 35.562-32.944 35.633-52.806 5.4-3.489 11.157-7.556 17.158-12.099v105.89c0 4.34-3.53 7.87-7.87 7.87h-160.08c-4.339 0-7.87-3.53-7.87-7.87v-16.04c0-4.143-3.358-7.5-7.5-7.5s-7.5 3.357-7.5 7.5v16.04c0 12.61 10.259 22.87 22.87 22.87h160.08c12.61 0 22.87-10.26 22.87-22.87v-117.819c13.187-10.972 25.876-22.613 38.853-35.587 3.311-3.311 6.552-6.63 9.728-9.947v231.223h-302.981zm208.676 382.915c.224 0 .422.149.481.364v.001l10.563 38.087c.094.24-.221.66-.482.633h-135.497c-.259.028-.578-.389-.482-.634l10.563-38.085c.06-.216.258-.366.482-.366zm-90.88-15 5.712-42.455h55.963l5.712 42.455zm274.694-79.955c0 12.406-10.094 22.5-22.5 22.5h-437c-12.407 0-22.5-10.094-22.5-22.5v-282.42c0-12.406 10.093-22.5 22.5-22.5h52.01v15h-48.01c-6.341 0-11.5 5.159-11.5 11.5v259.42c0 6.341 5.159 11.5 11.5 11.5h429c6.341 0 11.5-5.159 11.5-11.5v-259.42c0-6.341-5.159-11.5-11.5-11.5h-31.196c4.1-5.148 7.902-10.167 11.352-15h23.844c12.406 0 22.5 10.094 22.5 22.5zm-407.49-274.92v252.42h-44.51v-252.42zm295.48 222.422h-257.98c-4.142 0-7.5 3.357-7.5 7.5s3.358 7.5 7.5 7.5h257.98c4.143 0 7.5-3.357 7.5-7.5s-3.357-7.5-7.5-7.5zm-227.98-280.462c-4.142 0-7.5 3.358-7.5 7.5s3.358 7.5 7.5 7.5 7.5-3.358 7.5-7.5-3.358-7.5-7.5-7.5z" fill="#037fff" data-original="#000000" style="" class=""/></g></g></svg>
